/* XPM */
static char * dda_logo_32_xpm[] = {
"32 32 63 1",
" 	c None",
".	c #9D9D9D",
"+	c #A5A5A5",
"@	c #C7C7C7",
"#	c #DFDFDF",
"$	c #EFEFEF",
"%	c #F2F2F2",
"&	c #F5F5F5",
"*	c #F9F9F9",
"=	c #FAFAFA",
"-	c #F6F6F6",
";	c #F8F8F8",
">	c #FBFBFB",
",	c #F7F7F7",
"'	c #FCFCFC",
")	c #FDFDFD",
"!	c #FEFEFE",
"~	c #BFBFBF",
"{	c #DCDCDC",
"]	c #ECECEC",
"^	c #EDEDED",
"/	c #F0F0F0",
"(	c #EAEAEA",
"_	c #E0E0E0",
":	c #E2E2E2",
"<	c #F4F4F4",
"[	c #EEEEEE",
"}	c #F3F3F3",
"|	c #DEDEDE",
"1	c #D1D1D1",
"2	c #C6C6C6",
"3	c #D6D6D6",
"4	c #EBEBEB",
"5	c #DBDBDB",
"6	c #D0D0D0",
"7	c #E3E3E3",
"8	c #CDCDCD",
"9	c #DDDDDD",
"0	c #C5C5C5",
"a	c #CACACA",
"b	c #E6E6E6",
"c	c #D7D7D7",
"d	c #E7E7E7",
"e	c #F1F1F1",
"f	c #D8D8D8",
"g	c #CFCFCF",
"h	c #CECECE",
"i	c #CCCCCC",
"j	c #E4E4E4",
"k	c #FFFFFF",
"l	c #D5D5D5",
"m	c #C9C9C9",
"n	c #CBCBCB",
"o	c #D3D3D3",
"p	c #DADADA",
"q	c #D4D4D4",
"r	c #E9E9E9",
"s	c #D9D9D9",
"t	c #E5E5E5",
"u	c #E8E8E8",
"v	c #E1E1E1",
"w	c #C8C8C8",
"x	c #D2D2D2",
".+@#$%&*=-;>,&-;,;,;>';;=;')!!!)",
"~{],'**>)')'*;''-=';,=))=,******",
"#^/,>=*-$/(_:/*>=>)!>,<<-*,,;>)'",
"[,>'>*}(|1@234&<-*%/]56#<**,;,-&",
"'>=,,*;$718{[='>;=]960a7&*>*}4_5",
"--*,*!*b1c]*)=*'*)&{@1^*;*>'<d3a",
"-,,->%56{e>'!>;=;/fg|/**'=&>*_8h",
"**-)48ib=!'-&>!-d81j-'*=*-k}lm5-",
"''<5no^!>;;;)!epac4>!*&,''4qa5})",
"-[q6_,),==,>'r6is<>)==='-tg6d=!-",
"/tl[)',,'=*-t1gb')>*;''%5ac]''=)",
",&*)>,>)*&=,uve)'=>)=>&jl5e)=,;*",
"')>=>'-&>=;**>'=<;*;*;&ee->*-''<",
";;-,,-,>='*<>>-&';-->>='>;!>;=')",
"*==)>;*';=**>--=,*&;)>,*==>;;>'*",
"=,*,*'*&&;*>'-,>,*,;'>;=>*****;;",
">;)=>k>;'>;=;<;)=*;,;*,;=,;,,;;>",
"';,;*;,;>>>)!))>-*;,,**>'>==*--=",
"d|#]<-=)=;-[ruu4%&,,;>))=,');,,,",
"ma_$*'=-et9{pln1b;'>-e^(_|$,;'!=",
"gv,=k>[|3p7^}bw07=>,]_pga5/*='*]",
"[-'k&#c|j/=!;v8fe=,,&txxv<'k*(9s",
"))=boxj->)>e{nce)-')]3lu=)k&7c|$",
"!*tlld->)k/sx#<);==43f]*)'$9c7&k",
"}|8_e>!',bcsu=''>>7l_})'&^#{4;))",
":i#%)!=%vo#<;*)k;#c7,'=)^f|]>k',",
"o1]-,(99|['>-')$5l4=)**e|p$')=/j",
"1cvvvvt/,)';>>bcfe=!=='u1_,)edtd",
"(dr]$}*)>=''*<db})>))>,^__juu4/,",
">==>'')''>''>===''''''>>;&--;=>)",
"!!!!!!'))!)'!!!!)')'))!'')))!')!",
"!!!!!)!!))!!)!!!)!)!!!)>)))'))''"};
